<svg width="75" height="75" viewBox="0 0 75 75" fill="none" xmlns="http://www.w3.org/2000/svg">
<rect width="75" height="75" rx="7" fill="white"/>
<path d="M37.5009 12C27.8825 12 20 20.016 20 29.7995C20 33.5903 21.1871 37.1135 23.1959 40.0091L35.365 61.4668C37.0691 63.7378 38.2021 63.3064 39.6192 61.3468L53.0417 38.0489C53.3123 37.5485 53.5253 37.0157 53.7106 36.4715C54.5623 34.3544 55.0003 32.088 55 29.7995C55.0006 20.016 47.1205 12 37.5009 12ZM37.5009 20.34C42.681 20.34 46.7999 24.5316 46.7999 29.7995C46.7999 35.0675 42.681 39.2573 37.5009 39.2573C32.3214 39.2573 28.2007 35.0681 28.2007 29.7995C28.2007 24.5316 32.3214 20.3406 37.5009 20.3406V20.34Z" fill="#671C5B"/>
</svg>
