<svg width="75" height="75" viewBox="0 0 75 75" fill="none" xmlns="http://www.w3.org/2000/svg">
<rect width="75" height="75" rx="7" fill="white"/>
<path fill-rule="evenodd" clip-rule="evenodd" d="M42.5161 18.8487C42.0885 18.7874 41.659 18.9138 41.3174 19.1858C40.9661 19.4616 40.7466 19.86 40.6989 20.3063C40.5977 21.2084 41.2487 22.0243 42.1496 22.1259C48.3628 22.8192 53.1921 27.6593 53.8907 33.8919C53.9842 34.727 54.6848 35.3571 55.5208 35.3571C55.5838 35.3571 55.6449 35.3533 55.7079 35.3456C56.145 35.2977 56.5344 35.0813 56.8093 34.7365C57.0822 34.3918 57.2063 33.9627 57.1567 33.5241C56.2863 25.7478 50.2678 19.7125 42.5161 18.8487ZM42.6358 25.5227C41.7234 25.3541 40.8854 25.9364 40.7117 26.827C40.538 27.7177 41.1221 28.5873 42.0097 28.7615C44.682 29.2825 46.7455 31.3511 47.2685 34.0326V34.0345C47.4174 34.8064 48.0969 35.3676 48.8795 35.3676C48.9845 35.3676 49.0895 35.358 49.1964 35.3389C50.084 35.1607 50.6681 34.2931 50.4944 33.4005C49.7137 29.3955 46.6309 26.3022 42.6358 25.5227ZM45.6674 43.9237C46.5328 43.4248 47.5101 42.8612 48.743 43.1235C49.8596 43.3591 53.6658 46.4485 54.708 47.5192C55.3913 48.2202 55.7712 48.9442 55.8304 49.6682C55.9334 52.5087 52.0738 55.7514 51.3714 56.1555C50.438 56.8278 49.3519 57.1668 48.1321 57.1668C46.8857 57.1668 45.4961 56.8125 43.9805 56.1057C35.7573 52.6734 23.1954 40.3596 19.8741 32.2002C18.4959 29.1625 18.4864 26.6572 19.8512 24.7744C20.3952 23.8914 23.497 20.2006 26.2743 20.3174C27.013 20.3806 27.7308 20.7598 28.4351 21.4494C29.5002 22.4932 32.5123 26.3105 32.7452 27.431C33.0029 28.676 32.4379 29.6662 31.9359 30.5358C31.8288 30.7227 31.6845 30.9446 31.5265 31.1876C30.9266 32.1099 30.1282 33.3376 30.4107 34.1213C32.436 39.0936 37.1145 43.4318 42.0888 45.4698C42.8581 45.7494 44.0851 44.9453 45.0045 44.3427C45.244 44.1858 45.4626 44.0425 45.6469 43.9356L45.6674 43.9237Z" fill="#671C5B"/>
</svg>
