<svg width="123" height="73" viewBox="0 0 123 73" fill="none" xmlns="http://www.w3.org/2000/svg">
<path d="M10.7752 41.0474C10.7752 41.5793 10.6948 42.1016 10.536 42.6145C10.3771 43.1292 10.1321 43.5849 9.80481 43.9834C9.47754 44.3818 9.06032 44.7059 8.55505 44.9538C8.04979 45.2016 7.46032 45.3255 6.78663 45.3255H4.68519C4.01151 45.3255 3.42012 45.2016 2.91486 44.9538C2.4096 44.7059 1.99237 44.3818 1.6651 43.9834C1.33782 43.5849 1.08902 43.1292 0.9206 42.6145C0.752179 42.1016 0.667969 41.5774 0.667969 41.0474V38.5746C0.667969 38.3439 0.782801 38.2295 1.01438 38.2295H3.67467C3.78184 38.2295 3.83352 38.2829 3.83352 38.3878V38.5479C3.83352 38.7786 3.83735 39.076 3.84692 39.4383C3.85649 39.8005 3.89476 40.178 3.96749 40.5688C4.0383 40.9768 4.13208 41.3124 4.24692 41.5774C4.36175 41.8424 4.51677 42.0197 4.71199 42.1093C4.83639 42.1798 4.98185 42.2237 5.15027 42.2427C5.31869 42.2599 5.51008 42.2694 5.72252 42.2694C6.44979 42.2694 6.95122 42.1188 7.22682 41.8176C7.50242 41.5164 7.63831 41.0283 7.63831 40.3553L7.6651 26.1652C7.6651 25.9345 7.77993 25.8201 8.01151 25.8201H10.4326C10.6642 25.8201 10.779 25.9345 10.779 26.1652V41.0474H10.7752ZM22.9283 38.0179H24.7905L23.8852 33.6597L22.9283 38.0179ZM29.2077 45.2988H26.6527C26.4575 45.2988 26.3427 45.2111 26.3063 45.0338L25.5082 41.074H22.2623L21.4642 45.0338C21.4278 45.2111 21.313 45.2988 21.1178 45.2988H18.5647C18.2814 45.2988 18.1666 45.1578 18.2183 44.8737L22.3695 26.0585C22.4058 25.8812 22.5111 25.7935 22.6891 25.7935H25.1101C25.2881 25.7935 25.3934 25.8812 25.4297 26.0585L29.5541 44.8737C29.6077 45.1578 29.4929 45.2988 29.2077 45.2988ZM40.2164 26.0318L44.8996 37.1409L44.8728 26.1652C44.8728 25.9345 44.9876 25.8201 45.2192 25.8201H47.6939C47.9235 25.8201 48.0403 25.9345 48.0403 26.1652V44.9805C48.0403 45.2111 47.9254 45.3255 47.6939 45.3255H45.3264C45.1675 45.3255 45.0604 45.255 45.0068 45.1139L40.3235 34.0047L40.3771 44.9805C40.3771 45.2111 40.2623 45.3255 40.0307 45.3255H37.5025C37.2728 45.3255 37.1561 45.2111 37.1561 44.9805L37.1293 26.1652C37.1293 25.9345 37.2441 25.8201 37.4757 25.8201H39.8967C40.0556 25.8201 40.1628 25.8907 40.2164 26.0318ZM56.7331 25.8201H66.2317C66.5685 25.8201 66.6757 25.9803 66.5513 26.2987L60.4843 42.2961L66.1245 42.2694C66.3542 42.2694 66.4709 42.3838 66.4709 42.6145V44.9805C66.4709 45.2111 66.3561 45.3255 66.1245 45.3255H56.6795C56.3427 45.3255 56.2355 45.1673 56.3599 44.847L62.3733 28.8496H56.7331C56.5015 28.8496 56.3867 28.7352 56.3867 28.5045V26.1671C56.3867 25.9364 56.5015 25.8221 56.7331 25.8221V25.8201ZM83.3877 26.1652V28.5026C83.3877 28.7333 83.2728 28.8477 83.0413 28.8477H77.5599V34.0562H81.4987C81.7283 34.0562 81.8451 34.1706 81.8451 34.4013V36.7406C81.8451 36.9713 81.7302 37.0856 81.4987 37.0856H77.5599V42.2675L83.0413 42.2942C83.2728 42.2942 83.3877 42.4086 83.3877 42.6393V44.9786C83.3877 45.2092 83.2728 45.3236 83.0413 45.3236H74.7676C74.536 45.3236 74.4212 45.2092 74.4212 44.9786L74.3944 26.1633C74.3944 25.9326 74.5092 25.8182 74.7408 25.8182H83.0413C83.2728 25.8182 83.3877 25.9326 83.3877 26.1633V26.1652ZM102.165 26.1652V28.5026C102.165 28.7333 102.05 28.8477 101.818 28.8477H98.3331V44.9786C98.3331 45.2092 98.2183 45.3236 97.9867 45.3236H95.5121C95.2805 45.3236 95.1657 45.2092 95.1657 44.9786V28.8477L91.6537 28.9011C91.424 28.9011 91.3073 28.7867 91.3073 28.556V26.1652C91.3073 25.9345 91.4221 25.8201 91.6537 25.8201H101.818C102.048 25.8201 102.165 25.9345 102.165 26.1652ZM113.786 45.3255C113.112 45.3255 112.523 45.2016 112.015 44.9538C111.51 44.7059 111.093 44.3818 110.766 43.9834C110.438 43.5849 110.189 43.1292 110.021 42.6145C109.853 42.1016 109.768 41.5774 109.768 41.0474V30.0716C109.768 29.5397 109.853 29.0212 110.021 28.5159C110.189 28.0107 110.438 27.5589 110.766 27.1604C111.093 26.762 111.51 26.4379 112.015 26.19C112.521 25.9422 113.11 25.8182 113.786 25.8182H115.887C116.561 25.8182 117.15 25.9422 117.657 26.19C118.163 26.4379 118.58 26.762 118.907 27.1604C119.236 27.5589 119.479 28.0107 119.638 28.5159C119.797 29.0212 119.878 29.5397 119.878 30.0716V41.0474C119.878 41.5793 119.797 42.1016 119.638 42.6145C119.479 43.1292 119.234 43.5849 118.907 43.9834C118.58 44.3818 118.163 44.7059 117.657 44.9538C117.152 45.2016 116.563 45.3255 115.887 45.3255H113.786ZM112.934 40.3553C112.934 41.0111 113.072 41.4935 113.347 41.8042C113.623 42.115 114.115 42.2694 114.823 42.2694C115.248 42.2694 115.587 42.2427 115.834 42.1893C116.082 42.136 116.272 42.0425 116.406 41.911C116.54 41.7775 116.628 41.5869 116.672 41.339C116.716 41.0912 116.739 40.7633 116.739 40.3553V30.7885C116.739 30.3977 116.716 30.0755 116.672 29.8181C116.628 29.5607 116.54 29.3662 116.406 29.2328C116.272 29.0993 116.082 29.0059 115.834 28.9544C115.587 28.9011 115.248 28.8744 114.823 28.8744C114.113 28.8744 113.621 29.025 113.347 29.3262C113.072 29.6274 112.934 30.1155 112.934 30.7885V40.3553Z" fill="#671B5C"/>
<path d="M29.9466 11.3196C30.2069 11.333 30.4423 11.4092 30.6509 11.5484C30.8595 11.6876 31.0203 11.8802 31.1332 12.1261C31.3131 12.5188 31.3246 12.9078 31.1657 13.2948C31.0069 13.6818 30.7255 13.9678 30.3236 14.1527L28.2662 15.0964L26.0576 10.313L27.9638 9.43793C28.3561 9.25872 28.7466 9.23393 29.1351 9.36548C29.5274 9.49512 29.8107 9.74678 29.9829 10.1205C30.1724 10.5304 30.1609 10.9307 29.9466 11.3215V11.3196ZM28.3045 10.1757L27.1868 10.6886L27.7667 11.9469L28.8844 11.434C29.0585 11.354 29.1772 11.2262 29.2404 11.0508C29.3035 10.8754 29.2939 10.7 29.2116 10.5208C29.1293 10.3435 29.0011 10.2215 28.827 10.1548C28.6528 10.088 28.4786 10.0957 28.3045 10.1738V10.1757ZM28.714 13.9964L29.9829 13.4149C30.1648 13.331 30.2892 13.1956 30.3561 13.0088C30.4212 12.822 30.4116 12.6351 30.3255 12.4464C30.2394 12.2595 30.1035 12.1299 29.9179 12.0575C29.7322 11.985 29.5466 11.9907 29.3648 12.0746L28.0959 12.6561L28.714 13.9945V13.9964ZM32.6853 13.106L30.6604 8.24255L31.4624 7.91082L33.4872 12.7743L32.6853 13.106ZM36.1131 6.91944L35.1944 11.2319L37.4738 10.3874L37.7628 11.1633L34.471 12.3835L34.2203 11.7124L35.1389 7.39988L32.9667 8.20442L32.6777 7.42848L35.8624 6.24836L36.1131 6.91754V6.91944ZM37.225 5.85943L39.2174 5.27795C39.914 5.07586 40.5609 5.15021 41.1638 5.50291C41.7705 5.85371 42.1782 6.38562 42.3868 7.09865C42.5954 7.80596 42.538 8.47324 42.2183 9.09857C41.9026 9.71818 41.3954 10.13 40.7006 10.3321L38.7083 10.9136L37.225 5.85943ZM39.3093 9.87642L40.4691 9.53897C40.9475 9.3998 41.2882 9.12335 41.4911 8.70774C41.6997 8.29212 41.7303 7.83456 41.5829 7.33315C41.4356 6.83174 41.1619 6.46379 40.7619 6.22357C40.3657 5.98335 39.9294 5.93378 39.4509 6.07296L38.2911 6.41041L39.3093 9.87642ZM44.5265 7.08721L44.8327 8.47705L47.1198 7.97755L47.2978 8.7859L44.1628 9.46843L43.0317 4.3247L46.1303 3.6498L46.3083 4.45815L44.0576 4.94812L44.3523 6.28458L46.4174 5.83465L46.5935 6.63537L44.5284 7.08531L44.5265 7.08721ZM54.9341 5.09111C55.1753 5.19215 55.3686 5.34277 55.5179 5.54486C55.6652 5.74695 55.7514 5.98145 55.7724 6.25217C55.8088 6.68304 55.6844 7.05099 55.4011 7.36175C55.1179 7.6706 54.7562 7.84409 54.316 7.88032L52.0576 8.06525L51.6251 2.81666L53.7169 2.64507C54.1495 2.60885 54.5227 2.71943 54.8423 2.9749C55.1657 3.23037 55.3456 3.5621 55.3782 3.972C55.4145 4.42193 55.2672 4.7937 54.9322 5.0873L54.9341 5.09111ZM53.7839 3.45724L52.5571 3.55829L52.6719 4.93859L53.8987 4.83755C54.0901 4.82229 54.2451 4.74222 54.3638 4.59923C54.4844 4.45625 54.5342 4.28657 54.5188 4.09211C54.5035 3.89764 54.4251 3.7394 54.2834 3.61739C54.1418 3.49537 53.9753 3.44199 53.7858 3.45724H53.7839ZM52.8557 7.18635L54.249 7.07196C54.4499 7.0548 54.6126 6.97092 54.7389 6.81649C54.8652 6.66207 54.9188 6.48285 54.9035 6.27886C54.8863 6.07296 54.804 5.90519 54.6528 5.77554C54.5035 5.644 54.3274 5.5868 54.1265 5.60396L52.7332 5.71835L52.8538 7.18826L52.8557 7.18635ZM58.5801 0.82818L59.56 0.780518L58.8097 1.83481L58.0251 1.87294L58.5782 0.82818H58.5801ZM61.2672 7.47423L60.3313 7.51999L59.9083 6.47904L57.6614 6.58962L57.3437 7.66679L56.4002 7.71255L58.0557 2.3591L59.0968 2.30762L61.2653 7.47233L61.2672 7.47423ZM58.6298 3.34857L57.9102 5.7641L59.5849 5.68213L58.6298 3.34857ZM66.0461 7.60769L65.0949 7.59244L64.0098 5.65543L62.982 5.63828L62.9514 7.55621L62.0825 7.54287L62.1686 2.27903L64.2834 2.31334C64.7562 2.32097 65.1543 2.49255 65.4758 2.83C65.8031 3.15601 65.9619 3.55638 65.9543 4.033C65.9485 4.36855 65.8471 4.67549 65.648 4.95003C65.449 5.22457 65.1925 5.42284 64.8786 5.54295L66.0461 7.60769ZM64.27 3.12551L63.0241 3.10454L62.9954 4.86424L64.2413 4.88521C64.4729 4.88902 64.67 4.80704 64.8346 4.63927C64.9992 4.4715 65.0815 4.2656 65.0873 4.01966C65.0911 3.77372 65.0145 3.56401 64.8557 3.39242C64.6968 3.21893 64.5035 3.13123 64.27 3.12742V3.12551ZM66.9533 7.68967L67.3858 2.44108L68.2509 2.51162L67.8184 7.76021L66.9533 7.68967ZM73.6499 3.07213L75.7035 3.37717C76.4212 3.48393 76.9782 3.82329 77.3763 4.39333C77.7801 4.96528 77.9255 5.6173 77.8145 6.35321C77.7055 7.0815 77.3744 7.66488 76.8193 8.09957C76.272 8.53043 75.6385 8.69249 74.9227 8.58572L72.8691 8.28068L73.6499 3.07213ZM73.8509 7.58862L75.0452 7.76593C75.537 7.83838 75.9638 7.7297 76.3236 7.43801C76.6873 7.14632 76.9093 6.74404 76.9858 6.22929C77.0624 5.71263 76.9705 5.2646 76.7064 4.87949C76.448 4.49628 76.0729 4.2675 75.5791 4.19506L74.3849 4.01775L73.849 7.58862H73.8509ZM82.0844 3.11979L83.0356 3.36192L82.0078 4.1493L81.248 3.95484L82.0844 3.11979ZM82.6873 10.2596L81.7801 10.0289L81.6844 8.90983L79.5045 8.35504L78.8825 9.29113L77.9677 9.05853L81.1332 4.42956L82.1418 4.68503L82.6873 10.2577V10.2596ZM81.3858 5.54295L79.983 7.6401L81.6078 8.05381L81.3858 5.54486V5.54295ZM89.0662 6.7307L89.9466 7.02239L88.2835 12.0212L87.4586 11.7486L88.6433 8.18536L86.2796 10.1948L86.1801 10.1624L85.4911 7.13678L84.3026 10.7077L83.4777 10.435L85.1409 5.43619L86.0308 5.72979L86.7122 8.72871L89.0624 6.7307H89.0662ZM91.5179 7.6401L93.4356 8.4332C94.1055 8.70964 94.5629 9.17292 94.8098 9.82304C95.0605 10.4751 95.0433 11.1442 94.7581 11.8306C94.4748 12.5112 94.0117 12.9955 93.3686 13.2833C92.7313 13.5693 92.0787 13.5731 91.4088 13.2967L89.4911 12.5036L91.516 7.6401H91.5179ZM90.6126 12.0708L91.7284 12.5322C92.1897 12.7228 92.628 12.719 93.049 12.5226C93.4739 12.3282 93.7858 11.9907 93.9868 11.5103C94.1878 11.0279 94.2069 10.5685 94.0442 10.1338C93.8873 9.69912 93.5791 9.38836 93.1179 9.19771L92.0021 8.73634L90.6126 12.0708ZM94.6414 14.8028L97.0375 10.109L97.8107 10.5018L95.4146 15.1956L94.6414 14.8028Z" fill="#671B5C"/>
<path fill-rule="evenodd" clip-rule="evenodd" d="M102.779 18.8467L102.771 18.8353C102.314 18.2367 101.91 17.2758 102.03 16.4293C102.141 15.6419 102.717 15.0814 103.339 15.1081C104.124 15.1424 104.624 15.8783 104.398 16.5818C104.989 16.1395 105.852 16.3683 106.141 17.0947C106.371 17.6704 106.026 18.3968 105.316 18.759C104.551 19.1499 103.51 19.085 102.79 18.8505L102.777 18.8467H102.779Z" fill="#EB6FB5"/>
<path fill-rule="evenodd" clip-rule="evenodd" d="M21.0814 18.8482L21.089 18.8368C21.5445 18.24 21.9465 17.283 21.8278 16.4365C21.7168 15.651 21.1426 15.0924 20.5225 15.1191C19.7398 15.1515 19.2421 15.8874 19.4661 16.5871C18.8766 16.1467 18.0154 16.3736 17.7264 17.0999C17.4986 17.6738 17.8393 18.3964 18.5493 18.7605C19.311 19.1513 20.3503 19.0846 21.068 18.852L21.0814 18.8482Z" fill="#EB6FB5"/>
<path d="M26.8532 63.3285V64.6783H29.0752V65.4638H26.0283V60.465H29.0389V61.2504H26.8532V62.5507H28.8609V63.3285H26.8532ZM31.4982 65.5553C31.0159 65.5553 30.6063 65.4466 30.2695 65.2312C29.9327 65.0139 29.6972 64.7126 29.5633 64.3275L30.2733 63.9138C30.4743 64.4762 30.8896 64.7565 31.5212 64.7565C31.8274 64.7565 32.059 64.6974 32.2159 64.5773C32.3728 64.4572 32.4513 64.2989 32.4513 64.0988C32.4513 63.8986 32.3671 63.7441 32.2006 63.6336C32.0341 63.5249 31.7374 63.4048 31.3126 63.277C30.8781 63.1493 30.526 62.9968 30.258 62.8195C29.9327 62.5907 29.77 62.2552 29.77 61.8129C29.77 61.3705 29.9269 61.0198 30.2427 60.7624C30.5527 60.5012 30.9336 60.3696 31.3815 60.3696C31.7776 60.3696 32.1279 60.465 32.4322 60.6575C32.7365 60.8501 32.9681 61.1208 33.1307 61.4678L32.436 61.8681C32.2255 61.401 31.8752 61.1685 31.3834 61.1685C31.1441 61.1685 30.9527 61.2237 30.8092 61.3362C30.6657 61.4487 30.5949 61.5993 30.5949 61.79C30.5949 61.9749 30.6657 62.1217 30.8092 62.2285C30.9527 62.3352 31.2188 62.4477 31.6054 62.5678C31.8446 62.6479 31.9824 62.6956 32.0207 62.7108C32.0819 62.7299 32.2063 62.7775 32.3939 62.8538C32.547 62.9148 32.6676 62.9815 32.7594 63.054C33.1327 63.3438 33.3049 63.6869 33.2743 64.0816C33.2743 64.5334 33.1097 64.8938 32.7805 65.1607C32.4609 65.4219 32.0322 65.5534 31.4982 65.5534V65.5553ZM33.992 60.465H35.9633C36.6504 60.465 37.2226 60.7052 37.6762 61.1856C38.1355 61.666 38.3652 62.259 38.3652 62.9625C38.3652 63.6622 38.1355 64.2551 37.6762 64.7412C37.2226 65.2217 36.6504 65.4619 35.9633 65.4619H33.992V60.4631V60.465ZM34.8169 64.6783H35.9633C36.436 64.6783 36.8207 64.5163 37.1173 64.1922C37.4178 63.8681 37.569 63.4582 37.569 62.9644C37.569 62.4687 37.4178 62.0607 37.1173 61.7366C36.8207 61.4125 36.436 61.2504 35.9633 61.2504H34.8169V64.6783ZM38.436 60.465H42.0915V61.2504H40.6791V65.4638H39.8542V61.2504H38.436V60.465Z" fill="#671B5C"/>
<path d="M86.1936 65.4372H82.8884V64.7947L84.6376 63.0179C85.0625 62.5946 85.275 62.2267 85.275 61.9178C85.275 61.6795 85.2042 61.4927 85.0606 61.3535C84.9171 61.2162 84.7314 61.1457 84.5018 61.1457C84.0807 61.1457 83.7707 61.3535 83.5697 61.7672L82.875 61.3611C83.0281 61.0332 83.2482 60.7816 83.5353 60.6081C83.8223 60.4346 84.1419 60.3469 84.496 60.3469C84.94 60.3469 85.3171 60.4841 85.629 60.7606C85.9448 61.0408 86.1018 61.4183 86.1018 61.8892C86.1018 62.3925 85.8166 62.9359 85.2482 63.5174L84.1152 64.646H86.1936V65.4391V65.4372ZM90.4137 64.8233C90.0692 65.2942 89.5869 65.5306 88.9649 65.5306C88.3487 65.5306 87.8625 65.2942 87.5104 64.8233C87.1659 64.3524 86.9936 63.7233 86.9936 62.9378C86.9936 62.1523 87.1659 61.5251 87.5104 61.0523C87.8644 60.5814 88.3487 60.345 88.9649 60.345C89.5869 60.345 90.0692 60.5795 90.4137 61.0523C90.7621 61.5194 90.9362 62.1466 90.9362 62.9378C90.9362 63.729 90.7621 64.3562 90.4137 64.8233ZM88.9649 64.7299C89.3381 64.7299 89.6214 64.5755 89.8185 64.2647C90.0137 63.9559 90.1132 63.5136 90.1132 62.9359C90.1132 62.3601 90.0156 61.9178 89.8185 61.6071C89.6214 61.2982 89.3381 61.1438 88.9649 61.1438C88.5975 61.1438 88.3142 61.2982 88.1152 61.6071C87.9161 61.9159 87.8166 62.3601 87.8166 62.9359C87.8166 63.5117 87.9161 63.954 88.1152 64.2647C88.3142 64.5736 88.5955 64.7299 88.9649 64.7299ZM91.6367 60.9017L92.9554 60.4384H93.6731V65.4372H92.8482V61.3173L91.8377 61.6033L91.6367 60.9036V60.9017ZM94.6377 61.222V60.4365H97.8262V61.1495L96.0635 65.4334H95.1965L96.9305 61.2201H94.6377V61.222Z" fill="#671B5C"/>
<path d="M121.324 22.7336C121.585 22.7336 121.839 22.8004 122.088 22.9338C122.335 23.0673 122.53 23.2579 122.668 23.5058C122.806 23.7555 122.877 24.0129 122.877 24.2836C122.877 24.5505 122.808 24.8079 122.672 25.0539C122.536 25.2998 122.344 25.4904 122.098 25.6277C121.851 25.7631 121.592 25.8317 121.324 25.8317C121.056 25.8317 120.798 25.7631 120.551 25.6277C120.304 25.4923 120.113 25.2998 119.975 25.0539C119.839 24.8079 119.768 24.5505 119.768 24.2836C119.768 24.0148 119.837 23.7555 119.977 23.5058C120.117 23.2579 120.31 23.0673 120.559 22.9338C120.808 22.8004 121.062 22.7336 121.322 22.7336H121.324ZM121.324 22.9891C121.106 22.9891 120.892 23.0444 120.687 23.1569C120.48 23.2675 120.318 23.4276 120.203 23.6354C120.086 23.8432 120.027 24.0587 120.027 24.2836C120.027 24.5067 120.084 24.7202 120.199 24.9242C120.314 25.1282 120.475 25.2884 120.679 25.4027C120.886 25.5171 121.1 25.5743 121.324 25.5743C121.548 25.5743 121.763 25.5171 121.969 25.4027C122.176 25.2884 122.335 25.1282 122.45 24.9242C122.563 24.7202 122.62 24.5067 122.62 24.2836C122.62 24.0587 122.561 23.8432 122.446 23.6354C122.329 23.4276 122.168 23.2675 121.962 23.1569C121.755 23.0463 121.543 22.9891 121.326 22.9891H121.324ZM120.641 25.1358V23.4715H121.217C121.414 23.4715 121.556 23.4867 121.644 23.5172C121.732 23.5477 121.803 23.6011 121.854 23.6774C121.906 23.7536 121.933 23.8356 121.933 23.9214C121.933 24.0434 121.889 24.1483 121.801 24.2379C121.713 24.3275 121.598 24.379 121.453 24.3904C121.512 24.4152 121.56 24.4457 121.594 24.4781C121.661 24.5429 121.743 24.6535 121.841 24.8079L122.044 25.1339H121.717L121.567 24.8708C121.451 24.6649 121.357 24.5353 121.284 24.4819C121.234 24.4438 121.164 24.4247 121.068 24.4266H120.909V25.132H120.639L120.641 25.1358ZM120.911 24.1978H121.238C121.395 24.1978 121.502 24.175 121.56 24.1292C121.617 24.0834 121.646 24.0205 121.646 23.9462C121.646 23.8966 121.632 23.8528 121.604 23.8146C121.577 23.7746 121.539 23.746 121.491 23.7269C121.441 23.7079 121.351 23.6983 121.219 23.6983H120.911V24.1978Z" fill="#671B5C"/>
<path fill-rule="evenodd" clip-rule="evenodd" d="M65.9179 66.2379C65.9179 66.2379 66.517 64.5277 65.1275 64.4458C63.738 64.3638 63.7648 66.1292 63.7648 66.1292L63.7131 71.8697C63.7112 72.1766 63.7361 72.3863 64.2012 72.3997C64.5591 72.4092 64.582 72.0203 64.582 72.0203L65.9179 66.2379ZM57.6136 66.2379C57.6136 66.2379 57.0146 64.5277 58.404 64.4458C59.7935 64.3638 59.7667 66.1292 59.7667 66.1292L59.8184 71.8697C59.8203 72.1766 59.7954 72.3863 59.3304 72.3997C58.9725 72.4092 58.9495 72.0203 58.9495 72.0203L57.6136 66.2379ZM56.9265 71.721C56.9265 71.721 54.5552 66.3732 54.3103 65.4238C54.0653 64.4744 54.4193 64.0397 55.0739 63.9844C55.7284 63.9291 56.3007 64.4991 56.4902 65.5306C56.6815 66.562 57.6347 71.5017 57.6615 71.721C57.6882 71.9383 57.2997 71.944 57.2117 71.925C57.1236 71.904 57.0681 71.9459 56.9246 71.721H56.9265ZM66.6069 71.721C66.6069 71.721 68.9782 66.3732 69.2232 65.4238C69.4682 64.4744 69.1141 64.0397 68.4595 63.9844C67.805 63.9291 67.2327 64.4991 67.0434 65.5306C66.852 66.562 65.8988 71.5017 65.872 71.721C65.8452 71.9383 66.2337 71.944 66.3217 71.925C66.4098 71.904 66.4653 71.9459 66.6069 71.721Z" fill="#A11B8D"/>
<path fill-rule="evenodd" clip-rule="evenodd" d="M63.0047 65.5591C62.8593 63.9233 60.6717 63.9233 60.5244 65.5591C60.5856 66.1863 60.9301 70.4664 61.1655 71.9535C61.3071 72.84 62.2201 72.84 62.3617 71.9535C62.5971 70.4664 62.9416 66.1863 63.0028 65.5591H63.0047Z" fill="#A11B8D"/>
<path fill-rule="evenodd" clip-rule="evenodd" d="M59.606 53.1264C59.784 53.3819 60.1285 53.8375 60.5821 54.276C62.4481 56.0891 65.6634 55.9671 68.0519 57.1567C69.5237 57.8907 70.94 59.1109 71.1581 60.251C71.1945 60.3711 71.0529 60.4264 70.8443 60.3196C67.2002 58.4188 66.4462 59.0384 62.7581 58.2034C60.6299 57.7211 58.628 56.8746 57.9256 55.1873C57.6079 54.4228 57.7955 53.6125 59.1122 53.0444C59.4969 52.8785 59.5179 53.0006 59.606 53.1264Z" fill="#E15197"/>
<path fill-rule="evenodd" clip-rule="evenodd" d="M70.1956 60.791C69.6808 60.5413 68.8195 60.2686 67.3765 60.0818C64.2186 59.6719 59.3305 58.446 57.1028 56.2688C56.7831 55.9561 56.5994 55.4833 56.1229 55.8742C53.6501 57.9027 57.6042 60.1504 59.3592 60.9302C62.2511 62.2171 66.1956 63.2275 68.697 63.1036C69.2425 63.0769 69.719 62.9949 70.1018 62.85C70.697 62.6251 70.9535 62.3105 71.009 61.9578C71.0741 61.5555 70.8559 61.1113 70.1956 60.791Z" fill="#EB6FB5"/>
<path fill-rule="evenodd" clip-rule="evenodd" d="M54.0651 58.6027C52.9569 59.6475 52.3387 61.0583 53.9445 62.0935C55.7646 63.2698 63.9177 64.2326 63.7933 63.2832C63.7933 63.2832 56.3943 61.92 54.4823 58.7934C54.3215 58.5303 54.31 58.3701 54.0651 58.6008V58.6027Z" fill="#E15197"/>
<path fill-rule="evenodd" clip-rule="evenodd" d="M62.5706 51.6188C62.5706 51.6188 61.5352 51.4777 60.984 51.9276C60.4328 52.3757 60.2089 53.5901 61.4376 54.9552C62.184 55.7845 62.8519 55.7997 63.5639 55.6968C65.1122 55.4737 66.2127 54.1544 65.7744 52.3909C65.2328 50.2137 62.8826 51.0583 62.5706 51.6188ZM64.1227 51.676C64.3716 51.5025 64.7754 51.6512 65.0223 52.0077C65.2692 52.3623 65.2692 52.7913 65.0184 52.9629C64.7696 53.1364 64.3658 52.9877 64.1189 52.6311C63.872 52.2765 63.872 51.8476 64.1227 51.676Z" fill="#E15197"/>
<path fill-rule="evenodd" clip-rule="evenodd" d="M57.296 49.2072C57.296 49.2072 58.1879 48.5037 59.8932 49.3616C61.5984 50.2196 62.6109 52.1089 62.6109 52.1089L62.8788 51.863C62.8788 51.863 61.5008 49.8135 60.0788 49.0261C58.6568 48.2387 56.6396 48.416 56.6396 48.416C56.6396 48.416 56.4692 49.0261 57.2941 49.2053L57.296 49.2072Z" fill="#E15197"/>
</svg>
