<svg width="75" height="75" viewBox="0 0 75 75" fill="none" xmlns="http://www.w3.org/2000/svg">
<rect width="75" height="75" rx="7" fill="white"/>
<path d="M17.75 20C16.5565 20 15.4119 20.4741 14.568 21.318C13.7241 22.1619 13.25 23.3065 13.25 24.5V49.25H17.75C17.75 51.0402 18.4612 52.7571 19.727 54.023C20.9929 55.2888 22.7098 56 24.5 56C26.2902 56 28.0071 55.2888 29.273 54.023C30.5388 52.7571 31.25 51.0402 31.25 49.25H44.75C44.75 51.0402 45.4612 52.7571 46.727 54.023C47.9929 55.2888 49.7098 56 51.5 56C53.2902 56 55.0071 55.2888 56.273 54.023C57.5388 52.7571 58.25 51.0402 58.25 49.25H62.75V38L56 29H49.25V20H17.75ZM33.5 24.5L42.5 33.5L33.5 42.5V35.75H20V31.25H33.5V24.5ZM49.25 32.375H54.875L59.3075 38H49.25V32.375ZM24.5 45.875C25.3951 45.875 26.2536 46.2306 26.8865 46.8635C27.5194 47.4964 27.875 48.3549 27.875 49.25C27.875 50.1451 27.5194 51.0035 26.8865 51.6365C26.2536 52.2694 25.3951 52.625 24.5 52.625C23.6049 52.625 22.7464 52.2694 22.1135 51.6365C21.4806 51.0035 21.125 50.1451 21.125 49.25C21.125 48.3549 21.4806 47.4964 22.1135 46.8635C22.7464 46.2306 23.6049 45.875 24.5 45.875ZM51.5 45.875C52.3951 45.875 53.2535 46.2306 53.8865 46.8635C54.5194 47.4964 54.875 48.3549 54.875 49.25C54.875 50.1451 54.5194 51.0035 53.8865 51.6365C53.2535 52.2694 52.3951 52.625 51.5 52.625C50.6049 52.625 49.7465 52.2694 49.1135 51.6365C48.4806 51.0035 48.125 50.1451 48.125 49.25C48.125 48.3549 48.4806 47.4964 49.1135 46.8635C49.7465 46.2306 50.6049 45.875 51.5 45.875Z" fill="#671C5B"/>
</svg>
