<svg width="75" height="75" viewBox="0 0 75 75" fill="none" xmlns="http://www.w3.org/2000/svg">
<rect width="75" height="75" rx="7" fill="white"/>
<path d="M38 27.0909C39.1787 27.0909 40.3092 26.6312 41.1427 25.8128C41.9762 24.9945 42.4444 23.8846 42.4444 22.7273C42.4444 21.8982 42.2222 21.1345 41.8 20.48L38 14L34.2 20.48C33.7778 21.1345 33.5556 21.8982 33.5556 22.7273C33.5556 25.1273 35.5556 27.0909 38 27.0909ZM48.2222 48.8873L45.8444 46.5527L43.4444 48.8873C40.5556 51.7236 35.4889 51.7455 32.5778 48.8873L30.2 46.5527L27.7778 48.8873C26.3333 50.3055 24.4 51.0909 22.3556 51.0909C20.7333 51.0909 19.2444 50.5891 18 49.76V59.8182C18 61.0182 19 62 20.2222 62H55.7778C57 62 58 61.0182 58 59.8182V49.76C56.7556 50.5891 55.2667 51.0909 53.6444 51.0909C51.6 51.0909 49.6667 50.3055 48.2222 48.8873ZM51.3333 33.6364H40.2222V29.2727H35.7778V33.6364H24.6667C20.9778 33.6364 18 36.56 18 40.1818V43.5418C18 45.8982 19.9556 47.8182 22.3556 47.8182C23.5111 47.8182 24.6222 47.3818 25.4222 46.5745L30.1778 41.9273L34.9111 46.5745C36.5556 48.1891 39.4222 48.1891 41.0667 46.5745L45.8222 41.9273L50.5556 46.5745C51.3778 47.3818 52.4667 47.8182 53.6222 47.8182C56.0222 47.8182 57.9778 45.8982 57.9778 43.5418V40.1818C58 36.56 55.0222 33.6364 51.3333 33.6364Z" fill="#671C5B"/>
</svg>
