<svg width="75" height="75" viewBox="0 0 75 75" fill="none" xmlns="http://www.w3.org/2000/svg">
<rect width="75" height="75" rx="7" fill="white"/>
<path d="M59.3749 20.0002H53.3749V24.5002C53.3749 24.9335 53.2895 25.3627 53.1237 25.763C52.9579 26.1634 52.7148 26.5272 52.4083 26.8336C52.1019 27.1401 51.7381 27.3831 51.3378 27.549C50.9374 27.7148 50.5083 27.8002 50.0749 27.8002C49.6415 27.8002 49.2124 27.7148 48.812 27.549C48.4117 27.3831 48.0479 27.1401 47.7414 26.8336C47.435 26.5272 47.1919 26.1634 47.0261 25.763C46.8603 25.3627 46.7749 24.9335 46.7749 24.5002V20.0002H29.2999V24.5002C29.2999 25.3754 28.9522 26.2148 28.3333 26.8336C27.7145 27.4525 26.8751 27.8002 25.9999 27.8002C25.1247 27.8002 24.2853 27.4525 23.6664 26.8336C23.0476 26.2148 22.6999 25.3754 22.6999 24.5002V20.0002H16.6999C16.3429 19.9961 15.9888 20.0637 15.6584 20.1989C15.328 20.3341 15.028 20.5341 14.7763 20.7873C14.5246 21.0404 14.3262 21.3414 14.1928 21.6726C14.0595 22.0037 13.9939 22.3582 13.9999 22.7152V56.2852C13.9939 56.6358 14.0571 56.9842 14.1858 57.3104C14.3145 57.6366 14.5062 57.9343 14.75 58.1864C14.9938 58.4386 15.2848 58.6402 15.6065 58.7798C15.9282 58.9194 16.2743 58.9943 16.6249 59.0002H59.3749C59.7255 58.9943 60.0716 58.9194 60.3933 58.7798C60.715 58.6402 61.006 58.4386 61.2498 58.1864C61.4936 57.9343 61.6853 57.6366 61.814 57.3104C61.9427 56.9842 62.0059 56.6358 61.9999 56.2852V22.7152C62.0059 22.3645 61.9427 22.0161 61.814 21.6899C61.6853 21.3637 61.4936 21.066 61.2498 20.8139C61.006 20.5618 60.715 20.3602 60.3933 20.2205C60.0716 20.0809 59.7255 20.006 59.3749 20.0002ZM25.9999 50.0002H22.9999V47.0002H25.9999V50.0002ZM25.9999 42.5002H22.9999V39.5002H25.9999V42.5002ZM25.9999 35.0002H22.9999V32.0002H25.9999V35.0002ZM34.9999 50.0002H31.9999V47.0002H34.9999V50.0002ZM34.9999 42.5002H31.9999V39.5002H34.9999V42.5002ZM34.9999 35.0002H31.9999V32.0002H34.9999V35.0002ZM43.9999 50.0002H40.9999V47.0002H43.9999V50.0002ZM43.9999 42.5002H40.9999V39.5002H43.9999V42.5002ZM43.9999 35.0002H40.9999V32.0002H43.9999V35.0002ZM52.9999 50.0002H49.9999V47.0002H52.9999V50.0002ZM52.9999 42.5002H49.9999V39.5002H52.9999V42.5002ZM52.9999 35.0002H49.9999V32.0002H52.9999V35.0002Z" fill="#671C5B"/>
<path d="M26 26C26.3978 26 26.7794 25.842 27.0607 25.5607C27.342 25.2794 27.5 24.8978 27.5 24.5V15.5C27.5 15.1022 27.342 14.7206 27.0607 14.4393C26.7794 14.158 26.3978 14 26 14C25.6022 14 25.2206 14.158 24.9393 14.4393C24.658 14.7206 24.5 15.1022 24.5 15.5V24.5C24.5 24.8978 24.658 25.2794 24.9393 25.5607C25.2206 25.842 25.6022 26 26 26Z" fill="#671C5B"/>
<path d="M50 26C50.3978 26 50.7794 25.842 51.0607 25.5607C51.342 25.2794 51.5 24.8978 51.5 24.5V15.5C51.5 15.1022 51.342 14.7206 51.0607 14.4393C50.7794 14.158 50.3978 14 50 14C49.6022 14 49.2206 14.158 48.9393 14.4393C48.658 14.7206 48.5 15.1022 48.5 15.5V24.5C48.5 24.8978 48.658 25.2794 48.9393 25.5607C49.2206 25.842 49.6022 26 50 26Z" fill="#671C5B"/>
</svg>
